<svg width="17" height="17" viewBox="0 0 17 17" fill="none" xmlns="http://www.w3.org/2000/svg">
<path d="M14.0916 14.4071V13.0717C14.0916 12.3633 13.8102 11.6839 13.3093 11.183C12.8084 10.6821 12.129 10.4007 11.4206 10.4007H10.7529C10.5758 10.4007 10.406 10.3304 10.2807 10.2052C10.1555 10.0799 10.0852 9.9101 10.0852 9.733V6.39434C10.0852 6.04015 9.94447 5.70047 9.69402 5.45002C9.44357 5.19957 9.10389 5.05887 8.7497 5.05887C8.39551 5.05887 8.05583 5.19957 7.80538 5.45002C7.55494 5.70047 7.41424 6.04015 7.41424 6.39434V12.4039L5.81168 10.2672C5.68728 10.1013 5.52598 9.96671 5.34054 9.87399C5.1551 9.78127 4.95063 9.733 4.7433 9.733H4.45351C3.87592 9.733 3.40784 10.2011 3.40784 10.7787C3.40784 10.9683 3.45925 11.1546 3.55674 11.3169L5.41104 14.4071M8.7497 3.05567V2.38794V3.05567ZM12.7561 7.06207H13.4238H12.7561ZM4.07557 7.06207H4.7433H4.07557ZM5.64007 3.95244L5.16798 3.48035L5.64007 3.95244ZM11.8593 3.95244L12.3314 3.48035L11.8593 3.95244Z" fill="#4CAF4F"/>
<path d="M14.0916 14.4071V13.0717C14.0916 12.3633 13.8102 11.6839 13.3093 11.183C12.8084 10.6821 12.129 10.4007 11.4206 10.4007H10.7529C10.5758 10.4007 10.406 10.3304 10.2807 10.2052C10.1555 10.0799 10.0852 9.9101 10.0852 9.733V6.39434C10.0852 6.04015 9.94447 5.70047 9.69402 5.45002C9.44357 5.19957 9.10389 5.05887 8.7497 5.05887V5.05887C8.39551 5.05887 8.05583 5.19957 7.80538 5.45002C7.55494 5.70047 7.41424 6.04015 7.41424 6.39434V12.4039L5.81168 10.2672C5.68728 10.1013 5.52598 9.96671 5.34054 9.87399C5.15511 9.78127 4.95063 9.733 4.7433 9.733H4.45351C3.87592 9.733 3.40784 10.2011 3.40784 10.7787C3.40784 10.9683 3.45925 11.1546 3.55674 11.3169L5.41104 14.4071M8.7497 3.05567V2.38794M12.7561 7.06207H13.4238M4.07557 7.06207H4.7433M5.64007 3.95244L5.16798 3.48035M11.8593 3.95244L12.3314 3.48035" stroke="#4CAF4F" stroke-width="0.667733" stroke-linecap="round" stroke-linejoin="round"/>
</svg>
