<svg width="134" height="22" viewBox="0 0 134 22" fill="none" xmlns="http://www.w3.org/2000/svg">
<path d="M17.0184 12.0322L12.3791 19.9777L7.73992 12.0322H17.0184ZM18.2612 11.3221H6.49207L12.3791 21.3831L18.2612 11.3221Z" fill="white"/>
<path d="M25.0841 2.14975L29.7234 10.0953H20.4449L25.0841 2.14975ZM25.0841 0.729492L19.197 10.7905H30.9712L25.0841 0.729492Z" fill="white"/>
<path d="M0.85144 0.729492L5.78757 9.62848L11.1815 0.952948L0.85144 0.729492Z" fill="#4CAF4F"/>
<path d="M12.3792 1.50897L17.5569 10.3583H7.19153L12.3792 1.50897Z" fill="#4CAF4F"/>
<path d="M18.8902 12.2904L24.0728 21.3831H13.4609L18.7291 12.2904H18.8902Z" fill="#4CAF4F"/>
<path d="M20.0122 11.7391L25.0842 20.6927L30.2266 11.7391H20.0122Z" fill="#4CAF4F"/>
<path d="M52.5135 2.16571V19.69H49.3132L41.6891 8.6603H41.5608V19.69H37.8557V2.16571H41.1073L48.6715 13.1868H48.8255V2.16571H52.5135Z" fill="white"/>
<path d="M61.4959 19.9467C60.144 19.9467 58.9802 19.6729 58.0048 19.1252C57.035 18.5719 56.2877 17.7904 55.7629 16.7807C55.2381 15.7653 54.9757 14.5645 54.9757 13.1783C54.9757 11.8263 55.2381 10.6398 55.7629 9.61866C56.2877 8.59755 57.0264 7.80177 57.9791 7.23132C58.9375 6.66087 60.0612 6.37564 61.3505 6.37564C62.2175 6.37564 63.0247 6.5154 63.772 6.79492C64.525 7.06874 65.181 7.48232 65.7401 8.03565C66.3048 8.58899 66.7441 9.28494 67.0578 10.1235C67.3716 10.9564 67.5284 11.9318 67.5284 13.0499V14.0511H56.4303V11.7921H64.0972C64.0972 11.2673 63.9831 10.8023 63.7549 10.3973C63.5267 9.9923 63.2101 9.6757 62.8051 9.44752C62.4058 9.21364 61.9409 9.09669 61.4104 9.09669C60.857 9.09669 60.3664 9.22504 59.9386 9.48175C59.5165 9.73275 59.1856 10.0722 58.946 10.5C58.7064 10.9221 58.5838 11.3928 58.5781 11.9119V14.0596C58.5781 14.7099 58.6979 15.2718 58.9375 15.7453C59.1827 16.2188 59.5279 16.5839 59.9728 16.8406C60.4178 17.0973 60.9454 17.2256 61.5558 17.2256C61.9608 17.2256 62.3316 17.1686 62.6682 17.0545C63.0048 16.9404 63.2928 16.7693 63.5324 16.5411C63.772 16.3129 63.9546 16.0334 64.0801 15.7025L67.4514 15.925C67.2803 16.735 66.9295 17.4424 66.399 18.0471C65.8741 18.646 65.1953 19.1138 64.3624 19.4504C63.5353 19.7812 62.5798 19.9467 61.4959 19.9467Z" fill="white"/>
<path d="M72.7181 6.54678L75.1311 11.1418L77.604 6.54678H81.3434L77.5356 13.1184L81.446 19.69H77.7238L75.1311 15.1463L72.5812 19.69H68.8162L72.7181 13.1184L68.9532 6.54678H72.7181Z" fill="white"/>
<path d="M88.976 19.9467C87.6297 19.9467 86.4717 19.6615 85.5019 19.091C84.5379 18.5148 83.7963 17.7162 83.2772 16.6951C82.7638 15.674 82.5071 14.4989 82.5071 13.1697C82.5071 11.8235 82.7666 10.6426 83.2857 9.62721C83.8106 8.60611 84.555 7.81033 85.5191 7.23987C86.4831 6.66372 87.6297 6.37564 88.9589 6.37564C90.1055 6.37564 91.1095 6.58386 91.9709 7.00028C92.8322 7.41671 93.5139 8.00143 94.0159 8.75442C94.5179 9.50742 94.7946 10.3916 94.8459 11.407H91.4061C91.3091 10.751 91.0524 10.2233 90.636 9.82402C90.2253 9.419 89.6862 9.21649 89.0188 9.21649C88.454 9.21649 87.9606 9.37051 87.5385 9.67855C87.122 9.98089 86.7969 10.423 86.563 11.0049C86.3291 11.5867 86.2122 12.2912 86.2122 13.1184C86.2122 13.9569 86.3262 14.67 86.5544 15.2576C86.7883 15.8451 87.1163 16.2929 87.5385 16.601C87.9606 16.909 88.454 17.063 89.0188 17.063C89.4352 17.063 89.8089 16.9775 90.1397 16.8063C90.4763 16.6352 90.7529 16.3871 90.9697 16.0619C91.1922 15.731 91.3377 15.3346 91.4061 14.8725H94.8459C94.7889 15.8765 94.5151 16.7607 94.0245 17.5251C93.5396 18.2838 92.8693 18.8771 92.0136 19.3049C91.158 19.7328 90.1454 19.9467 88.976 19.9467Z" fill="white"/>
<path d="M103.17 19.9467C101.818 19.9467 100.654 19.6729 99.6784 19.1252C98.7086 18.5719 97.9613 17.7904 97.4365 16.7807C96.9117 15.7653 96.6493 14.5645 96.6493 13.1783C96.6493 11.8263 96.9117 10.6398 97.4365 9.61866C97.9613 8.59755 98.7 7.80177 99.6527 7.23132C100.611 6.66087 101.735 6.37564 103.024 6.37564C103.891 6.37564 104.698 6.5154 105.446 6.79492C106.199 7.06874 106.855 7.48232 107.414 8.03565C107.978 8.58899 108.418 9.28494 108.731 10.1235C109.045 10.9564 109.202 11.9318 109.202 13.0499V14.0511H98.1039V11.7921H105.771C105.771 11.2673 105.657 10.8023 105.429 10.3973C105.2 9.9923 104.884 9.6757 104.479 9.44752C104.079 9.21364 103.614 9.09669 103.084 9.09669C102.531 9.09669 102.04 9.22504 101.612 9.48175C101.19 9.73275 100.859 10.0722 100.62 10.5C100.38 10.9221 100.257 11.3928 100.252 11.9119V14.0596C100.252 14.7099 100.371 15.2718 100.611 15.7453C100.856 16.2188 101.201 16.5839 101.646 16.8406C102.091 17.0973 102.619 17.2256 103.229 17.2256C103.634 17.2256 104.005 17.1686 104.342 17.0545C104.678 16.9404 104.966 16.7693 105.206 16.5411C105.446 16.3129 105.628 16.0334 105.754 15.7025L109.125 15.925C108.954 16.735 108.603 17.4424 108.073 18.0471C107.548 18.646 106.869 19.1138 106.036 19.4504C105.209 19.7812 104.253 19.9467 103.17 19.9467Z" fill="white"/>
<path d="M115.226 12.0916V19.69H111.581V6.54678H115.055V8.86566H115.209C115.5 8.10126 115.988 7.49658 116.672 7.05162C117.357 6.60097 118.187 6.37564 119.162 6.37564C120.075 6.37564 120.871 6.5753 121.549 6.97462C122.228 7.37393 122.756 7.94438 123.132 8.68597C123.509 9.42185 123.697 10.3003 123.697 11.3215V19.69H120.052V11.9718C120.058 11.1674 119.852 10.5399 119.436 10.0893C119.02 9.63292 118.446 9.40474 117.716 9.40474C117.225 9.40474 116.792 9.51027 116.415 9.72134C116.045 9.93241 115.754 10.2404 115.543 10.6455C115.337 11.0448 115.232 11.5268 115.226 12.0916Z" fill="white"/>
<path d="M133.561 6.54678V9.28494H125.646V6.54678H133.561ZM127.443 3.39789H131.088V15.6512C131.088 15.9877 131.139 16.2502 131.242 16.4384C131.345 16.6209 131.487 16.7493 131.67 16.8235C131.858 16.8976 132.075 16.9347 132.32 16.9347C132.491 16.9347 132.663 16.9204 132.834 16.8919C133.005 16.8577 133.136 16.832 133.227 16.8149L133.801 19.5274C133.618 19.5844 133.361 19.65 133.031 19.7242C132.7 19.8041 132.297 19.8526 131.824 19.8697C130.946 19.9039 130.175 19.7869 129.514 19.5188C128.858 19.2507 128.347 18.8343 127.982 18.2696C127.617 17.7048 127.437 16.9917 127.443 16.1304V3.39789Z" fill="white"/>
</svg>
