<svg width="17" height="17" viewBox="0 0 17 17" fill="none" xmlns="http://www.w3.org/2000/svg">
<path d="M4.14441 3.05579H13.6591C14.1432 3.05579 14.61 3.22429 14.9813 3.52844L15.1346 3.66711C15.5259 4.05844 15.746 4.5893 15.746 5.1427V11.6525C15.746 12.1369 15.5777 12.6043 15.2733 12.9757L15.1346 13.1281C14.7433 13.5194 14.2125 13.7394 13.6591 13.7394H4.14441C3.66026 13.7394 3.19342 13.5709 2.82214 13.2667L2.66882 13.1281C2.2775 12.7367 2.0575 12.2059 2.0575 11.6525V5.1427C2.0575 4.65855 2.22602 4.19171 2.53015 3.82043L2.66882 3.66711C3.01113 3.32481 3.45986 3.11307 3.93738 3.06555L4.14441 3.05579ZM2.72546 11.6525C2.72546 12.0288 2.87441 12.3903 3.1405 12.6564C3.4066 12.9225 3.76808 13.0714 4.14441 13.0714H13.6591C14.0354 13.0714 14.3969 12.9225 14.663 12.6564C14.929 12.3903 15.078 12.0288 15.078 11.6525V6.72864H2.72546V11.6525ZM11.4061 10.0665H12.9081C12.9746 10.0665 13.0391 10.0867 13.0936 10.1232L13.1444 10.1652C13.2067 10.2277 13.242 10.3122 13.2421 10.4005C13.2421 10.467 13.2218 10.5316 13.1854 10.5861L13.1444 10.6368C13.0818 10.6995 12.9966 10.7345 12.9081 10.7345H11.4061C11.3398 10.7345 11.275 10.7151 11.2206 10.6788L11.1698 10.6368C11.1072 10.5742 11.0721 10.4891 11.0721 10.4005C11.0722 10.3343 11.0917 10.2702 11.1278 10.2159L11.1698 10.1652C11.2324 10.1025 11.3176 10.0665 11.4061 10.0665ZM4.14441 3.72375C3.76808 3.72375 3.4066 3.87269 3.1405 4.13879C2.8744 4.4049 2.72546 4.76638 2.72546 5.1427V6.06067H15.078V5.1427C15.078 4.76639 14.929 4.40489 14.663 4.13879C14.3969 3.87269 14.0354 3.72375 13.6591 3.72375H4.14441Z" fill="#4CAF4F" stroke="#4CAF4F" stroke-width="0.333867"/>
</svg>
