<svg width="17" height="17" viewBox="0 0 17 17" fill="none" xmlns="http://www.w3.org/2000/svg">
<g clip-path="url(#clip0_212_1407)">
<path d="M11.3469 2.95178H11.3479C12.0373 2.94978 12.7129 3.13315 13.304 3.48108L13.552 3.64026C14.1176 4.03469 14.565 4.57348 14.8489 5.19788L14.9602 5.47034C15.2303 6.21059 15.2659 7.01685 15.0618 7.77795C14.8576 8.53892 14.4237 9.21854 13.8196 9.72424L13.6155 9.89514L13.8577 10.0045C14.7263 10.3976 15.4891 10.9877 16.0862 11.7262L16.3313 12.0514L16.3323 12.0524C16.3768 12.1147 16.409 12.1857 16.426 12.2604C16.4345 12.2976 16.4387 12.3356 16.4397 12.3737L16.4319 12.4879C16.4253 12.5258 16.4145 12.5626 16.4006 12.5983L16.3499 12.6998C16.3292 12.7321 16.305 12.7622 16.2786 12.7897L16.1917 12.8639L16.1897 12.8649C16.0923 12.9345 15.9754 12.9716 15.8557 12.9713L15.7854 12.9674C15.7393 12.9616 15.6941 12.9497 15.6506 12.9332L15.5862 12.9049C15.5032 12.8617 15.4314 12.7996 15.3772 12.7233H15.3782C14.9799 12.1581 14.4678 11.6834 13.8762 11.3297L13.6174 11.1862C13.004 10.8676 12.3316 10.6814 11.6438 10.6393L11.3479 10.6305L11.2327 10.6188C11.1579 10.6038 11.0871 10.5741 11.0237 10.5319L10.9348 10.4596C10.8253 10.3501 10.763 10.2014 10.7629 10.0465C10.7629 9.93033 10.7981 9.81755 10.8616 9.72229L10.9348 9.63342C11.0444 9.52387 11.193 9.46155 11.3479 9.46155C11.9676 9.46147 12.5651 9.24641 13.0403 8.85706L13.2366 8.67932C13.7372 8.17846 14.0188 7.49886 14.0188 6.79065C14.0187 6.17088 13.8028 5.57348 13.4133 5.09827L13.2366 4.90198C12.7983 4.46371 12.223 4.19414 11.6116 4.13342L11.3479 4.11975C11.1646 4.11941 10.982 4.13861 10.803 4.17639L10.6252 4.22034L10.6233 4.22131C10.5493 4.24332 10.4716 4.25002 10.3948 4.24182C10.3563 4.2377 10.3182 4.22993 10.2815 4.21838L10.175 4.17249C10.1072 4.13511 10.0474 4.08472 9.99927 4.02405C9.97529 3.99383 9.95427 3.96153 9.93677 3.92737L9.89478 3.81897C9.87383 3.74443 9.86775 3.66632 9.8772 3.58948C9.88193 3.55118 9.89049 3.51362 9.90259 3.47717L9.94946 3.3717C9.96873 3.33797 9.99142 3.3061 10.0168 3.27698L10.1008 3.19788C10.1315 3.17433 10.164 3.15334 10.1985 3.13635L10.3069 3.09631L10.3098 3.09534C10.5629 3.02328 10.8231 2.97842 11.0852 2.96057L11.3469 2.95178ZM6.24536 2.9469C6.93448 2.9469 7.60932 3.13222 8.19946 3.48108L8.44653 3.64026C9.01102 4.03526 9.45793 4.57388 9.74146 5.19788L9.85278 5.47131C10.0887 6.11846 10.1452 6.81523 10.0198 7.48889L9.95532 7.77698C9.75217 8.5377 9.31958 9.21736 8.71704 9.72424L8.51489 9.89514L8.7561 10.0045C9.62469 10.3976 10.3876 10.9877 10.9846 11.7262L11.2297 12.0514L11.2346 12.0582C11.2589 12.0894 11.2806 12.1226 11.2981 12.1578L11.3391 12.2692C11.3491 12.3073 11.3555 12.3462 11.3577 12.3854L11.3518 12.5035C11.346 12.5425 11.3369 12.5809 11.3235 12.6178L11.2717 12.7242C11.2302 12.7916 11.1752 12.8496 11.1106 12.8951C11.0783 12.9179 11.0441 12.938 11.0081 12.9537L10.8948 12.9889C10.8561 12.9971 10.8169 13.0014 10.7776 13.0016L10.6604 12.9908C10.6215 12.9831 10.5834 12.971 10.5471 12.9557L10.4436 12.899C10.4111 12.8767 10.381 12.8512 10.3538 12.8229L10.2805 12.7301L10.2756 12.7233L10.0989 12.4869C9.73063 12.0242 9.28211 11.6315 8.77466 11.3278L8.51685 11.1832C7.81536 10.8186 7.03593 10.6285 6.24536 10.6285C5.55375 10.6286 4.87118 10.7747 4.24146 11.0553L3.97485 11.1832C3.36097 11.5023 2.82228 11.9473 2.39282 12.4869L2.21509 12.7233V12.7242C2.16169 12.8009 2.08995 12.8637 2.00708 12.9069C1.94509 12.9391 1.87782 12.9592 1.80884 12.9674L1.73853 12.9713H1.73755C1.6476 12.9715 1.55941 12.9507 1.47974 12.9108L1.40356 12.8649H1.40259C1.30787 12.798 1.23583 12.7048 1.19458 12.5983L1.16431 12.4869C1.14453 12.3728 1.15933 12.2565 1.20532 12.152L1.26196 12.0514C1.88889 11.1604 2.74303 10.4537 3.7356 10.0045L3.97681 9.89514L3.77368 9.72424C3.24662 9.28077 2.8503 8.70477 2.62329 8.05823L2.53638 7.77698C2.3587 7.11137 2.3634 6.41157 2.5481 5.75159L2.63892 5.47131C2.87503 4.82385 3.27982 4.25291 3.80981 3.81799L4.04419 3.64026C4.68935 3.18881 5.45794 2.94696 6.24536 2.9469ZM6.76685 4.17151C6.31342 4.08132 5.84534 4.11031 5.40845 4.25452L5.22388 4.32385C4.79687 4.50073 4.42399 4.7846 4.14087 5.14709L4.02466 5.30725C3.73132 5.74634 3.57453 6.26259 3.57446 6.79065C3.57446 7.41062 3.79034 8.00867 4.17993 8.48401L4.35669 8.67932C4.85752 9.18015 5.53709 9.46147 6.24536 9.46155C6.70764 9.46155 7.16142 9.34249 7.56177 9.11584L7.72974 9.01135C8.1139 8.75458 8.4242 8.40348 8.6311 7.9928L8.71313 7.81311C8.88996 7.38622 8.95278 6.92186 8.89673 6.46545L8.86548 6.27014C8.77532 5.8169 8.56902 5.39585 8.2688 5.04749L8.13403 4.90198C7.76058 4.52865 7.28475 4.27455 6.76685 4.17151Z" fill="#4CAF4F" stroke="#4CAF4F" stroke-width="0.333867"/>
</g>
<defs>
<clipPath id="clip0_212_1407">
<rect width="16.0256" height="16.0256" fill="white" transform="translate(0.736938 0.0301514)"/>
</clipPath>
</defs>
</svg>
